<svg width="217" height="205" viewBox="0 0 217 205" fill="none" xmlns="http://www.w3.org/2000/svg">
<g opacity="0.5" filter="url(#filter0_f_242_84)">
<path d="M193 69.1063C193 57.0371 184.037 46.8453 172.067 45.3031L57.0667 30.4871C42.713 28.6379 30 39.8181 30 54.2904V151C30 164.255 40.7452 175 54 175H169C182.255 175 193 164.255 193 151V69.1063Z" fill="url(#paint0_linear_242_84)"/>
</g>
<path d="M193 69.1063C193 57.0371 184.037 46.8453 172.067 45.3031L57.0667 30.4871C42.713 28.6379 30 39.8181 30 54.2904V151C30 164.255 40.7452 175 54 175H169C182.255 175 193 164.255 193 151V69.1063Z" fill="url(#paint1_linear_242_84)"/>
<defs>
<filter id="filter0_f_242_84" x="0" y="0.286652" width="223" height="204.713" filterUnits="userSpaceOnUse" color-interpolation-filters="sRGB">
<feFlood flood-opacity="0" result="BackgroundImageFix"/>
<feBlend mode="normal" in="SourceGraphic" in2="BackgroundImageFix" result="shape"/>
<feGaussianBlur stdDeviation="15" result="effect1_foregroundBlur_242_84"/>
</filter>
<linearGradient id="paint0_linear_242_84" x1="112" y1="67" x2="111.5" y2="175" gradientUnits="userSpaceOnUse">
<stop stop-color="#FF2E2E"/>
<stop offset="1" stop-color="#E08939"/>
</linearGradient>
<linearGradient id="paint1_linear_242_84" x1="112" y1="67" x2="111.5" y2="175" gradientUnits="userSpaceOnUse">
<stop stop-color="#FF2E2E"/>
<stop offset="1" stop-color="#E08939"/>
</linearGradient>
</defs>
</svg>
